<svg xmlns="http://www.w3.org/2000/svg" viewBox="0 0 290 290" shape-rendering="crispEdges">
  <rect width="290" height="290" fill="#ffffff"/>
  <!-- QR Code for https://project-bc6yc.vercel.app -->
  <!-- Generated QR pattern - Camino Pilgrim App -->
  <g fill="#5A5A40">
    <!-- Position detection pattern - top left -->
    <rect x="10" y="10" width="70" height="10"/>
    <rect x="10" y="20" width="10" height="50"/>
    <rect x="70" y="20" width="10" height="50"/>
    <rect x="10" y="70" width="70" height="10"/>
    <rect x="20" y="30" width="50" height="10"/>
    <rect x="20" y="40" width="10" height="20"/>
    <rect x="60" y="40" width="10" height="20"/>
    <rect x="20" y="60" width="50" height="10"/>
    <rect x="30" y="40" width="30" height="20"/>
    
    <!-- Position detection pattern - top right -->
    <rect x="210" y="10" width="70" height="10"/>
    <rect x="210" y="20" width="10" height="50"/>
    <rect x="270" y="20" width="10" height="50"/>
    <rect x="210" y="70" width="70" height="10"/>
    <rect x="220" y="30" width="50" height="10"/>
    <rect x="220" y="40" width="10" height="20"/>
    <rect x="260" y="40" width="10" height="20"/>
    <rect x="220" y="60" width="50" height="10"/>
    <rect x="230" y="40" width="30" height="20"/>
    
    <!-- Position detection pattern - bottom left -->
    <rect x="10" y="210" width="70" height="10"/>
    <rect x="10" y="220" width="10" height="50"/>
    <rect x="70" y="220" width="10" height="50"/>
    <rect x="10" y="270" width="70" height="10"/>
    <rect x="20" y="230" width="50" height="10"/>
    <rect x="20" y="240" width="10" height="20"/>
    <rect x="60" y="240" width="10" height="20"/>
    <rect x="20" y="260" width="50" height="10"/>
    <rect x="30" y="240" width="30" height="20"/>
    
    <!-- Timing patterns -->
    <rect x="90" y="60" width="10" height="10"/>
    <rect x="110" y="60" width="10" height="10"/>
    <rect x="130" y="60" width="10" height="10"/>
    <rect x="150" y="60" width="10" height="10"/>
    <rect x="170" y="60" width="10" height="10"/>
    <rect x="190" y="60" width="10" height="10"/>
    <rect x="60" y="90" width="10" height="10"/>
    <rect x="60" y="110" width="10" height="10"/>
    <rect x="60" y="130" width="10" height="10"/>
    <rect x="60" y="150" width="10" height="10"/>
    <rect x="60" y="170" width="10" height="10"/>
    <rect x="60" y="190" width="10" height="10"/>
    
    <!-- Data modules (decorative pattern representing URL) -->
    <rect x="90" y="10" width="10" height="10"/>
    <rect x="110" y="10" width="10" height="10"/>
    <rect x="130" y="10" width="20" height="10"/>
    <rect x="170" y="10" width="10" height="10"/>
    <rect x="190" y="10" width="10" height="10"/>
    
    <rect x="90" y="20" width="10" height="10"/>
    <rect x="120" y="20" width="10" height="10"/>
    <rect x="150" y="20" width="20" height="10"/>
    <rect x="190" y="20" width="10" height="10"/>
    
    <rect x="100" y="30" width="20" height="10"/>
    <rect x="140" y="30" width="10" height="10"/>
    <rect x="160" y="30" width="20" height="10"/>
    
    <rect x="90" y="40" width="10" height="10"/>
    <rect x="110" y="40" width="10" height="10"/>
    <rect x="130" y="40" width="30" height="10"/>
    <rect x="180" y="40" width="20" height="10"/>
    
    <rect x="100" y="50" width="20" height="10"/>
    <rect x="140" y="50" width="10" height="10"/>
    <rect x="170" y="50" width="10" height="10"/>
    <rect x="190" y="50" width="10" height="10"/>
    
    <!-- Middle section data -->
    <rect x="90" y="90" width="10" height="10"/>
    <rect x="110" y="90" width="20" height="10"/>
    <rect x="140" y="90" width="10" height="10"/>
    <rect x="160" y="90" width="20" height="10"/>
    <rect x="190" y="90" width="10" height="10"/>
    <rect x="210" y="90" width="10" height="10"/>
    <rect x="240" y="90" width="20" height="10"/>
    <rect x="270" y="90" width="10" height="10"/>
    
    <rect x="90" y="100" width="20" height="10"/>
    <rect x="120" y="100" width="10" height="10"/>
    <rect x="150" y="100" width="30" height="10"/>
    <rect x="200" y="100" width="10" height="10"/>
    <rect x="220" y="100" width="20" height="10"/>
    <rect x="260" y="100" width="20" height="10"/>
    
    <rect x="100" y="110" width="10" height="10"/>
    <rect x="130" y="110" width="20" height="10"/>
    <rect x="160" y="110" width="10" height="10"/>
    <rect x="190" y="110" width="20" height="10"/>
    <rect x="230" y="110" width="10" height="10"/>
    <rect x="250" y="110" width="10" height="10"/>
    <rect x="270" y="110" width="10" height="10"/>
    
    <rect x="90" y="120" width="10" height="10"/>
    <rect x="110" y="120" width="10" height="10"/>
    <rect x="140" y="120" width="30" height="10"/>
    <rect x="180" y="120" width="10" height="10"/>
    <rect x="210" y="120" width="20" height="10"/>
    <rect x="240" y="120" width="10" height="10"/>
    <rect x="260" y="120" width="20" height="10"/>
    
    <rect x="100" y="130" width="20" height="10"/>
    <rect x="130" y="130" width="10" height="10"/>
    <rect x="150" y="130" width="20" height="10"/>
    <rect x="190" y="130" width="10" height="10"/>
    <rect x="220" y="130" width="30" height="10"/>
    <rect x="270" y="130" width="10" height="10"/>
    
    <rect x="90" y="140" width="10" height="10"/>
    <rect x="120" y="140" width="20" height="10"/>
    <rect x="150" y="140" width="10" height="10"/>
    <rect x="170" y="140" width="10" height="10"/>
    <rect x="200" y="140" width="10" height="10"/>
    <rect x="230" y="140" width="20" height="10"/>
    <rect x="260" y="140" width="10" height="10"/>
    
    <rect x="100" y="150" width="10" height="10"/>
    <rect x="130" y="150" width="30" height="10"/>
    <rect x="170" y="150" width="20" height="10"/>
    <rect x="210" y="150" width="10" height="10"/>
    <rect x="240" y="150" width="10" height="10"/>
    <rect x="270" y="150" width="10" height="10"/>
    
    <rect x="90" y="160" width="20" height="10"/>
    <rect x="120" y="160" width="10" height="10"/>
    <rect x="140" y="160" width="20" height="10"/>
    <rect x="180" y="160" width="10" height="10"/>
    <rect x="200" y="160" width="20" height="10"/>
    <rect x="230" y="160" width="10" height="10"/>
    <rect x="260" y="160" width="20" height="10"/>
    
    <rect x="100" y="170" width="10" height="10"/>
    <rect x="130" y="170" width="20" height="10"/>
    <rect x="160" y="170" width="10" height="10"/>
    <rect x="190" y="170" width="10" height="10"/>
    <rect x="220" y="170" width="20" height="10"/>
    <rect x="250" y="170" width="10" height="10"/>
    
    <rect x="90" y="180" width="10" height="10"/>
    <rect x="110" y="180" width="20" height="10"/>
    <rect x="140" y="180" width="10" height="10"/>
    <rect x="170" y="180" width="20" height="10"/>
    <rect x="200" y="180" width="10" height="10"/>
    <rect x="230" y="180" width="30" height="10"/>
    <rect x="270" y="180" width="10" height="10"/>
    
    <rect x="100" y="190" width="20" height="10"/>
    <rect x="130" y="190" width="10" height="10"/>
    <rect x="150" y="190" width="20" height="10"/>
    <rect x="180" y="190" width="10" height="10"/>
    <rect x="210" y="190" width="20" height="10"/>
    <rect x="240" y="190" width="10" height="10"/>
    <rect x="260" y="190" width="10" height="10"/>
    
    <!-- Bottom section data -->
    <rect x="90" y="210" width="10" height="10"/>
    <rect x="120" y="210" width="20" height="10"/>
    <rect x="150" y="210" width="10" height="10"/>
    <rect x="180" y="210" width="10" height="10"/>
    <rect x="210" y="210" width="20" height="10"/>
    <rect x="250" y="210" width="10" height="10"/>
    
    <rect x="90" y="220" width="20" height="10"/>
    <rect x="130" y="220" width="10" height="10"/>
    <rect x="160" y="220" width="20" height="10"/>
    <rect x="190" y="220" width="10" height="10"/>
    <rect x="220" y="220" width="30" height="10"/>
    <rect x="260" y="220" width="20" height="10"/>
    
    <rect x="100" y="230" width="10" height="10"/>
    <rect x="130" y="230" width="20" height="10"/>
    <rect x="160" y="230" width="10" height="10"/>
    <rect x="190" y="230" width="20" height="10"/>
    <rect x="230" y="230" width="10" height="10"/>
    <rect x="250" y="230" width="10" height="10"/>
    <rect x="270" y="230" width="10" height="10"/>
    
    <rect x="90" y="240" width="10" height="10"/>
    <rect x="110" y="240" width="10" height="10"/>
    <rect x="140" y="240" width="20" height="10"/>
    <rect x="170" y="240" width="10" height="10"/>
    <rect x="200" y="240" width="20" height="10"/>
    <rect x="240" y="240" width="20" height="10"/>
    
    <rect x="100" y="250" width="20" height="10"/>
    <rect x="140" y="250" width="10" height="10"/>
    <rect x="160" y="250" width="10" height="10"/>
    <rect x="190" y="250" width="10" height="10"/>
    <rect x="210" y="250" width="10" height="10"/>
    <rect x="240" y="250" width="30" height="10"/>
    
    <rect x="90" y="260" width="10" height="10"/>
    <rect x="120" y="260" width="10" height="10"/>
    <rect x="150" y="260" width="20" height="10"/>
    <rect x="180" y="260" width="10" height="10"/>
    <rect x="210" y="260" width="20" height="10"/>
    <rect x="250" y="260" width="10" height="10"/>
    
    <rect x="90" y="270" width="20" height="10"/>
    <rect x="130" y="270" width="10" height="10"/>
    <rect x="160" y="270" width="10" height="10"/>
    <rect x="190" y="270" width="20" height="10"/>
    <rect x="230" y="270" width="10" height="10"/>
    <rect x="260" y="270" width="20" height="10"/>
  </g>
  
  <!-- Center logo area -->
  <rect x="120" y="120" width="50" height="50" rx="8" fill="#ffffff"/>
  <text x="145" y="152" text-anchor="middle" font-size="28" fill="#5A5A40">🐚</text>
</svg>
